<svg width="192" height="192" viewBox="0 0 192 192" xmlns="http://www.w3.org/2000/svg">
  <defs>
    <linearGradient id="grad1" x1="0%" y1="0%" x2="100%" y2="100%">
      <stop offset="0%" style="stop-color:#74b9ff;stop-opacity:1" />
      <stop offset="100%" style="stop-color:#0984e3;stop-opacity:1" />
    </linearGradient>
  </defs>
  <rect width="192" height="192" rx="28.799999999999997" fill="url(#grad1)"/>
  
  <!-- Sun -->
  <circle cx="96" cy="67.19999999999999" r="28.799999999999997" fill="#fff" opacity="0.9"/>
  
  <!-- Sun rays -->
  <g stroke="#fff" stroke-width="3.84" opacity="0.6">
    <line x1="124.8" y1="67.19999999999999" x2="140.16" y2="67.19999999999999"/><line x1="116.36467529817257" y1="87.56467529817255" x2="127.22583545719795" y2="98.42583545719792"/><line x1="96" y1="95.99999999999999" x2="96" y2="111.35999999999999"/><line x1="75.63532470182744" y1="87.56467529817256" x2="64.77416454280207" y2="98.42583545719793"/><line x1="67.2" y1="67.19999999999999" x2="51.84" y2="67.19999999999999"/><line x1="75.63532470182743" y1="46.835324701827425" x2="64.77416454280205" y2="35.97416454280206"/><line x1="96" y1="38.39999999999999" x2="95.99999999999999" y2="23.039999999999992"/><line x1="116.36467529817256" y1="46.83532470182742" x2="127.22583545719793" y2="35.97416454280204"/>
  </g>
  
  <!-- Cloud -->
  <g fill="#fff" opacity="0.7">
    <circle cx="96" cy="124.80000000000001" r="23.04"/>
    <circle cx="111.36" cy="124.80000000000001" r="19.200000000000003"/>
    <circle cx="80.64" cy="124.80000000000001" r="19.200000000000003"/>
    <circle cx="103.68" cy="115.20000000000002" r="15.36"/>
    <circle cx="88.32" cy="115.20000000000002" r="15.36"/>
  </g>
  
  <!-- Decorative elements -->
  <circle cx="67.2" cy="47.999999999999986" r="5.76" fill="#fff" opacity="0.6"/>
  <circle cx="134.4" cy="76.79999999999998" r="4.800000000000001" fill="#fff" opacity="0.6"/>
</svg>