<svg width="72" height="72" viewBox="0 0 72 72" xmlns="http://www.w3.org/2000/svg">
  <defs>
    <linearGradient id="grad1" x1="0%" y1="0%" x2="100%" y2="100%">
      <stop offset="0%" style="stop-color:#74b9ff;stop-opacity:1" />
      <stop offset="100%" style="stop-color:#0984e3;stop-opacity:1" />
    </linearGradient>
  </defs>
  <rect width="72" height="72" rx="10.799999999999999" fill="url(#grad1)"/>
  
  <!-- Sun -->
  <circle cx="36" cy="25.2" r="10.799999999999999" fill="#fff" opacity="0.9"/>
  
  <!-- Sun rays -->
  <g stroke="#fff" stroke-width="1.44" opacity="0.6">
    <line x1="46.8" y1="25.2" x2="52.56" y2="25.2"/><line x1="43.63675323681471" y1="32.83675323681471" x2="47.70968829644923" y2="36.909688296449225"/><line x1="36" y1="36" x2="36" y2="41.76"/><line x1="28.363246763185288" y1="32.836753236814715" x2="24.290311703550774" y2="36.909688296449225"/><line x1="25.200000000000003" y1="25.2" x2="19.44" y2="25.200000000000003"/><line x1="28.363246763185288" y1="17.563246763185287" x2="24.29031170355077" y2="13.490311703550773"/><line x1="36" y1="14.4" x2="36" y2="8.64"/><line x1="43.63675323681471" y1="17.563246763185283" x2="47.70968829644922" y2="13.49031170355077"/>
  </g>
  
  <!-- Cloud -->
  <g fill="#fff" opacity="0.7">
    <circle cx="36" cy="46.800000000000004" r="8.64"/>
    <circle cx="41.76" cy="46.800000000000004" r="7.2"/>
    <circle cx="30.240000000000002" cy="46.800000000000004" r="7.2"/>
    <circle cx="38.88" cy="43.2" r="5.76"/>
    <circle cx="33.12" cy="43.2" r="5.76"/>
  </g>
  
  <!-- Decorative elements -->
  <circle cx="25.200000000000003" cy="18" r="2.16" fill="#fff" opacity="0.6"/>
  <circle cx="50.4" cy="28.8" r="1.8" fill="#fff" opacity="0.6"/>
</svg>