<svg width="512" height="512" viewBox="0 0 512 512" xmlns="http://www.w3.org/2000/svg">
  <defs>
    <linearGradient id="grad1" x1="0%" y1="0%" x2="100%" y2="100%">
      <stop offset="0%" style="stop-color:#74b9ff;stop-opacity:1" />
      <stop offset="100%" style="stop-color:#0984e3;stop-opacity:1" />
    </linearGradient>
  </defs>
  <rect width="512" height="512" rx="76.8" fill="url(#grad1)"/>
  
  <!-- Sun -->
  <circle cx="256" cy="179.2" r="76.8" fill="#fff" opacity="0.9"/>
  
  <!-- Sun rays -->
  <g stroke="#fff" stroke-width="10.24" opacity="0.6">
    <line x1="332.8" y1="179.2" x2="373.76" y2="179.2"/><line x1="310.30580079512686" y1="233.50580079512685" x2="339.26889455252785" y2="262.4688945525278"/><line x1="256" y1="256" x2="256" y2="296.96"/><line x1="201.69419920487314" y1="233.50580079512685" x2="172.73110544747217" y2="262.46889455252784"/><line x1="179.2" y1="179.2" x2="138.24" y2="179.20000000000002"/><line x1="201.69419920487314" y1="124.89419920487315" x2="172.73110544747215" y2="95.93110544747216"/><line x1="256" y1="102.39999999999999" x2="255.99999999999997" y2="61.44"/><line x1="310.30580079512686" y1="124.89419920487313" x2="339.2688945525278" y2="95.93110544747213"/>
  </g>
  
  <!-- Cloud -->
  <g fill="#fff" opacity="0.7">
    <circle cx="256" cy="332.8" r="61.44"/>
    <circle cx="296.96" cy="332.8" r="51.2"/>
    <circle cx="215.04" cy="332.8" r="51.2"/>
    <circle cx="276.48" cy="307.2" r="40.96"/>
    <circle cx="235.52" cy="307.2" r="40.96"/>
  </g>
  
  <!-- Decorative elements -->
  <circle cx="179.2" cy="127.99999999999999" r="15.36" fill="#fff" opacity="0.6"/>
  <circle cx="358.4" cy="204.79999999999998" r="12.8" fill="#fff" opacity="0.6"/>
</svg>