<svg width="96" height="96" viewBox="0 0 96 96" xmlns="http://www.w3.org/2000/svg">
  <defs>
    <linearGradient id="grad1" x1="0%" y1="0%" x2="100%" y2="100%">
      <stop offset="0%" style="stop-color:#74b9ff;stop-opacity:1" />
      <stop offset="100%" style="stop-color:#0984e3;stop-opacity:1" />
    </linearGradient>
  </defs>
  <rect width="96" height="96" rx="14.399999999999999" fill="url(#grad1)"/>
  
  <!-- Sun -->
  <circle cx="48" cy="33.599999999999994" r="14.399999999999999" fill="#fff" opacity="0.9"/>
  
  <!-- Sun rays -->
  <g stroke="#fff" stroke-width="1.92" opacity="0.6">
    <line x1="62.4" y1="33.599999999999994" x2="70.08" y2="33.599999999999994"/><line x1="58.182337649086286" y1="43.78233764908627" x2="63.61291772859897" y2="49.21291772859896"/><line x1="48" y1="47.99999999999999" x2="48" y2="55.67999999999999"/><line x1="37.81766235091372" y1="43.78233764908628" x2="32.387082271401034" y2="49.21291772859897"/><line x1="33.6" y1="33.599999999999994" x2="25.92" y2="33.599999999999994"/><line x1="37.817662350913714" y1="23.417662350913712" x2="32.38708227140103" y2="17.98708227140103"/><line x1="48" y1="19.199999999999996" x2="47.99999999999999" y2="11.519999999999996"/><line x1="58.18233764908628" y1="23.41766235091371" x2="63.612917728598966" y2="17.98708227140102"/>
  </g>
  
  <!-- Cloud -->
  <g fill="#fff" opacity="0.7">
    <circle cx="48" cy="62.400000000000006" r="11.52"/>
    <circle cx="55.68" cy="62.400000000000006" r="9.600000000000001"/>
    <circle cx="40.32" cy="62.400000000000006" r="9.600000000000001"/>
    <circle cx="51.84" cy="57.60000000000001" r="7.68"/>
    <circle cx="44.16" cy="57.60000000000001" r="7.68"/>
  </g>
  
  <!-- Decorative elements -->
  <circle cx="33.6" cy="23.999999999999993" r="2.88" fill="#fff" opacity="0.6"/>
  <circle cx="67.2" cy="38.39999999999999" r="2.4000000000000004" fill="#fff" opacity="0.6"/>
</svg>