<svg width="152" height="152" viewBox="0 0 152 152" xmlns="http://www.w3.org/2000/svg">
  <defs>
    <linearGradient id="grad1" x1="0%" y1="0%" x2="100%" y2="100%">
      <stop offset="0%" style="stop-color:#74b9ff;stop-opacity:1" />
      <stop offset="100%" style="stop-color:#0984e3;stop-opacity:1" />
    </linearGradient>
  </defs>
  <rect width="152" height="152" rx="22.8" fill="url(#grad1)"/>
  
  <!-- Sun -->
  <circle cx="76" cy="53.199999999999996" r="22.8" fill="#fff" opacity="0.9"/>
  
  <!-- Sun rays -->
  <g stroke="#fff" stroke-width="3.04" opacity="0.6">
    <line x1="98.8" y1="53.199999999999996" x2="110.96000000000001" y2="53.199999999999996"/><line x1="92.12203461105328" y1="69.32203461105328" x2="100.7204530702817" y2="77.9204530702817"/><line x1="76" y1="76" x2="76" y2="88.16"/><line x1="59.87796538894672" y1="69.32203461105328" x2="51.2795469297183" y2="77.9204530702817"/><line x1="53.2" y1="53.199999999999996" x2="41.04" y2="53.2"/><line x1="59.87796538894671" y1="37.07796538894671" x2="51.27954692971829" y2="28.479546929718296"/><line x1="76" y1="30.399999999999995" x2="76" y2="18.239999999999995"/><line x1="92.12203461105328" y1="37.07796538894671" x2="100.72045307028169" y2="28.47954692971829"/>
  </g>
  
  <!-- Cloud -->
  <g fill="#fff" opacity="0.7">
    <circle cx="76" cy="98.8" r="18.24"/>
    <circle cx="88.16" cy="98.8" r="15.200000000000001"/>
    <circle cx="63.84" cy="98.8" r="15.200000000000001"/>
    <circle cx="82.08" cy="91.2" r="12.16"/>
    <circle cx="69.92" cy="91.2" r="12.16"/>
  </g>
  
  <!-- Decorative elements -->
  <circle cx="53.2" cy="37.99999999999999" r="4.56" fill="#fff" opacity="0.6"/>
  <circle cx="106.4" cy="60.8" r="3.8000000000000003" fill="#fff" opacity="0.6"/>
</svg>