<svg width="384" height="384" viewBox="0 0 384 384" xmlns="http://www.w3.org/2000/svg">
  <defs>
    <linearGradient id="grad1" x1="0%" y1="0%" x2="100%" y2="100%">
      <stop offset="0%" style="stop-color:#74b9ff;stop-opacity:1" />
      <stop offset="100%" style="stop-color:#0984e3;stop-opacity:1" />
    </linearGradient>
  </defs>
  <rect width="384" height="384" rx="57.599999999999994" fill="url(#grad1)"/>
  
  <!-- Sun -->
  <circle cx="192" cy="134.39999999999998" r="57.599999999999994" fill="#fff" opacity="0.9"/>
  
  <!-- Sun rays -->
  <g stroke="#fff" stroke-width="7.68" opacity="0.6">
    <line x1="249.6" y1="134.39999999999998" x2="280.32" y2="134.39999999999998"/><line x1="232.72935059634514" y1="175.1293505963451" x2="254.4516709143959" y2="196.85167091439584"/><line x1="192" y1="191.99999999999997" x2="192" y2="222.71999999999997"/><line x1="151.2706494036549" y1="175.12935059634512" x2="129.54832908560414" y2="196.85167091439587"/><line x1="134.4" y1="134.39999999999998" x2="103.68" y2="134.39999999999998"/><line x1="151.27064940365486" y1="93.67064940365485" x2="129.5483290856041" y2="71.94832908560412"/><line x1="192" y1="76.79999999999998" x2="191.99999999999997" y2="46.079999999999984"/><line x1="232.7293505963451" y1="93.67064940365483" x2="254.45167091439586" y2="71.94832908560409"/>
  </g>
  
  <!-- Cloud -->
  <g fill="#fff" opacity="0.7">
    <circle cx="192" cy="249.60000000000002" r="46.08"/>
    <circle cx="222.72" cy="249.60000000000002" r="38.400000000000006"/>
    <circle cx="161.28" cy="249.60000000000002" r="38.400000000000006"/>
    <circle cx="207.36" cy="230.40000000000003" r="30.72"/>
    <circle cx="176.64" cy="230.40000000000003" r="30.72"/>
  </g>
  
  <!-- Decorative elements -->
  <circle cx="134.4" cy="95.99999999999997" r="11.52" fill="#fff" opacity="0.6"/>
  <circle cx="268.8" cy="153.59999999999997" r="9.600000000000001" fill="#fff" opacity="0.6"/>
</svg>