<svg width="144" height="144" viewBox="0 0 144 144" xmlns="http://www.w3.org/2000/svg">
  <defs>
    <linearGradient id="grad1" x1="0%" y1="0%" x2="100%" y2="100%">
      <stop offset="0%" style="stop-color:#74b9ff;stop-opacity:1" />
      <stop offset="100%" style="stop-color:#0984e3;stop-opacity:1" />
    </linearGradient>
  </defs>
  <rect width="144" height="144" rx="21.599999999999998" fill="url(#grad1)"/>
  
  <!-- Sun -->
  <circle cx="72" cy="50.4" r="21.599999999999998" fill="#fff" opacity="0.9"/>
  
  <!-- Sun rays -->
  <g stroke="#fff" stroke-width="2.88" opacity="0.6">
    <line x1="93.6" y1="50.4" x2="105.12" y2="50.4"/><line x1="87.27350647362942" y1="65.67350647362942" x2="95.41937659289846" y2="73.81937659289845"/><line x1="72" y1="72" x2="72" y2="83.52"/><line x1="56.726493526370575" y1="65.67350647362943" x2="48.58062340710155" y2="73.81937659289845"/><line x1="50.400000000000006" y1="50.4" x2="38.88" y2="50.400000000000006"/><line x1="56.726493526370575" y1="35.126493526370574" x2="48.58062340710154" y2="26.980623407101547"/><line x1="72" y1="28.8" x2="72" y2="17.28"/><line x1="87.27350647362942" y1="35.12649352637057" x2="95.41937659289844" y2="26.98062340710154"/>
  </g>
  
  <!-- Cloud -->
  <g fill="#fff" opacity="0.7">
    <circle cx="72" cy="93.60000000000001" r="17.28"/>
    <circle cx="83.52" cy="93.60000000000001" r="14.4"/>
    <circle cx="60.480000000000004" cy="93.60000000000001" r="14.4"/>
    <circle cx="77.76" cy="86.4" r="11.52"/>
    <circle cx="66.24" cy="86.4" r="11.52"/>
  </g>
  
  <!-- Decorative elements -->
  <circle cx="50.400000000000006" cy="36" r="4.32" fill="#fff" opacity="0.6"/>
  <circle cx="100.8" cy="57.6" r="3.6" fill="#fff" opacity="0.6"/>
</svg>